<svg width="40" height="40" viewBox="0 0 24 24" xmlns="http://www.w3.org/2000/svg">
  <path fill="currentColor" d="M12 2C6.48 2 2 6.48 2 12s4.48 10 10 10 10-4.48 10-10S17.52 2 12 2zm2 16h-4v-2h4v2zm1.03-4.5c-.62-.71-1.5-1.16-1.5-1.76 0-.41.34-.74.75-.74s.75.34.75.75h2c0-1.79-1.46-3.25-3.25-3.25s-3.25 1.46-3.25 3.25c0 1.52 1.08 2.26 1.93 2.85c.75.51 1.41.95 1.41 1.6v.25c0 .41-.34.75-.75.75s-.75-.34-.75-.75h-2c0 1.24 1.01 2.25 2.25 2.25s2.25-1.01 2.25-2.25c0-1.15-.8-1.63-1.47-2.09c-.75-.51-1.3-.89-1.3-1.36c0-.41.34-.75.75-.75s.75.34.75.75h2z"/>
</svg>